<svg xmlns="http://www.w3.org/2000/svg" width="3840" height="1000" class="breadcrumbs-custom__shape" preserveAspectRatio="none"><defs><linearGradient id="a" x1="0%" y1="0%" y2="50%"><stop class="stop1" offset="20%"/><stop class="stop2" offset="65%"/><stop class="stop3" offset="100%"/></linearGradient></defs><path fill="url(#a)" d="M1920 .5H0v361s.1 584.8 0 594c78 0 116.1 45 192 45 76.9 0 113.5-45 192-45 76.9 0 118.4 45 192 45 76.8 0 115-45 192-45 73 0 115.1 45 192 45 76.7 0 113.6-45 192-45 77.4 0 113.8 45 192 45 76.1 0 114.9-45 192-45 75.5 0 113.2 45 192 45 83.2 0 109.2-45 192-45 0-20.7 0-594 0-594V.5z"/></svg>